<svg xmlns="http://www.w3.org/2000/svg" viewBox="0 0 640 480">
  <defs><linearGradient id="bg" x1="0" y1="0" x2="1" y2="1"><stop stop-color="#eeeaff"/><stop offset="1" stop-color="#fff5fa"/></linearGradient><filter id="s"><feDropShadow dx="0" dy="16" stdDeviation="14" flood-color="#332269" flood-opacity=".16"/></filter></defs>
  <rect width="640" height="480" rx="42" fill="url(#bg)"/>
  <circle cx="510" cy="92" r="78" fill="#ff4fa3" opacity=".10"/><circle cx="115" cy="392" r="105" fill="#6c63ff" opacity=".10"/>
  <g filter="url(#s)"><path d="M190 120l70-34c17 26 31 33 60 33s43-7 60-33l70 34 55 93-66 38-35-51v185H236V200l-35 51-66-38z" fill="#7569ee"/><path d="M260 86c17 26 31 33 60 33s43-7 60-33l-27-12c-8 14-18 20-33 20s-25-6-33-20z" fill="#fff"/><path d="M320 119v266" stroke="#fff" stroke-width="5" opacity=".7"/><g fill="#fff"><circle cx="320" cy="165" r="5"/><circle cx="320" cy="210" r="5"/><circle cx="320" cy="255" r="5"/></g></g>
</svg>
