<svg xmlns="http://www.w3.org/2000/svg" viewBox="0 0 640 480">
  <defs><linearGradient id="bg" x1="0" y1="0" x2="1" y2="1"><stop stop-color="#f5e9e2"/><stop offset="1" stop-color="#fff"/></linearGradient><filter id="s"><feDropShadow dx="0" dy="16" stdDeviation="14" flood-color="#332269" flood-opacity=".18"/></filter></defs>
  <rect width="640" height="480" rx="42" fill="url(#bg)"/><circle cx="112" cy="105" r="66" fill="#ff4fa3" opacity=".09"/>
  <g filter="url(#s)"><path d="M119 306c73-4 117-38 147-108 18-42 36-59 69-55l79 11c5 66 42 104 107 128 27 10 38 31 31 62-5 22-20 34-46 34H144c-35 0-52-22-48-46 2-14 10-23 23-26z" fill="#8a583d"/><path d="M111 330h430c9 0 14 8 11 19-5 19-19 29-43 29H141c-25 0-39-15-38-31 0-8 3-13 8-17z" fill="#34241f"/><path d="M278 180l122 17M265 207l144 20M253 235l165 24" stroke="#e4b89e" stroke-width="10" stroke-linecap="round"/></g>
</svg>
